<svg version="1.1" xmlns="http://www.w3.org/2000/svg" xmlns:xlink="http://www.w3.org/1999/xlink" width="64px" height="64px" viewBox="0,0,256,256"><defs><clipPath id="clip-1"><rect x="0" y="0" width="64" height="64" id="clip0_5701_38384" fill="none" fill-rule="nonzero"></rect></clipPath></defs><g fill="none" fill-rule="none" stroke="none" stroke-width="1" stroke-linecap="butt" stroke-linejoin="miter" stroke-miterlimit="10" stroke-dasharray="" stroke-dashoffset="0" font-family="none" font-weight="none" font-size="none" text-anchor="none" style="mix-blend-mode: normal"><g transform="scale(4,4)"><g clip-path="url(#clip-1)"><circle cx="32" cy="32" r="32" fill="#000000" fill-rule="nonzero"></circle><path d="M13,21.5095v20.9905l6.3067,-0.0379v-8.5147c0.75,0 1.4549,0.0301 2.0982,0.4793c0.4897,0.4518 0.8789,1.0068 1.1411,1.6273l3.3742,6.4081h7.0798c-1.4043,-2.7946 -2.5294,-6.3294 -4.9448,-8.4517c-0.5097,-0.3355 -1.0633,-0.5946 -1.6442,-0.7694c0.7763,-0.1631 1.5247,-0.4437 2.2209,-0.8326c1.7536,-1.0709 2.7596,-3.0276 2.7117,-5.071c0.0362,-1.2046 -0.2941,-2.3908 -0.9448,-3.3933c-1.4732,-2.2558 -4.4651,-2.5228 -6.9325,-2.4346zM21.9939,30.0116h-2.6626v-4.3141h2.773c1.3764,-0.1381 3.0771,0.4779 2.9816,2.1066c0.064,1.758 -1.7212,2.1086 -3.092,2.2075z" fill="#f1f4d4" fill-rule="evenodd"></path><path d="M39.4768,35.089l-6.4768,0.3776c0.1262,1.9005 1.0021,3.6934 2.4636,5.0422c1.4481,1.3235 4.044,1.9853 7.7879,1.9853c3.1049,0.0882 6.6543,-0.6795 8.5695,-3.3372c0.7719,-1.0635 1.1823,-2.3142 1.1788,-3.5929c0.0219,-2.3792 -1.5659,-4.3343 -3.6954,-5.2493c-2.0412,-0.8381 -4.1846,-1.4473 -6.384,-1.8147c-0.8097,-0.09 -1.5877,-0.3437 -2.2781,-0.743c-0.7384,-0.4973 -0.5643,-1.5298 0.0927,-1.9974c1.8734,-1.2389 4.8949,-0.2051 5.1258,2.1436l6.4237,-0.3411c-0.1142,-1.7941 -1.1001,-3.5076 -2.6489,-4.6038c-1.9369,-1.0696 -4.1824,-1.5709 -6.437,-1.4371c-1.8493,-0.0685 -3.6949,0.2006 -5.4304,0.7916c-2.16,0.7997 -3.9392,2.7512 -3.9338,5.1397c-0.0413,1.4852 0.6814,2.9563 1.9206,3.9096c1.8904,1.2617 4.0775,2.0961 6.384,2.4359c1.2443,0.1657 2.4337,0.5815 3.4834,1.2179c0.9654,0.715 0.9583,2.1511 -0.0265,2.8744c-1.0881,0.7629 -2.6925,0.8513 -3.9141,0.3565c-1.3101,-0.5308 -2.077,-1.7684 -2.205,-3.1578z" fill="#f1f4d4" fill-rule="nonzero"></path></g></g></g></svg>