<?xml version="1.0" ?>
<!-- Uploaded to: SVG Repo, www.svgrepo.com, Generator: SVG Repo Mixer Tools -->
<svg width="800px" height="800px" viewBox="0 0 64 64" enable-background="new 0 0 64 64" id="Filled_Outline_00000087397764462717629230000011401247782193659528_" version="1.1" xml:space="preserve" xmlns="http://www.w3.org/2000/svg" xmlns:xlink="http://www.w3.org/1999/xlink">
<g>
<g>
<path d="M41,17h-0.1c-2.705-1.27-5.714-2-8.9-2s-6.195,0.73-8.9,2H23C10.85,17,1,26.85,1,39v0    c0,12.15,9.85,22,22,22h0.1c2.705,1.27,5.714,2,8.9,2s6.195-0.73,8.9-2H41c12.15,0,22-9.85,22-22v0C63,26.85,53.15,17,41,17z" fill="#FF6D1F"/>
<path d="M21,4L21,4c0,1.657,1.343,3,3,3h0c2.761,0,5,2.239,5,5v3h6v-3c0-6.075-4.925-11-11-11h0    C22.343,1,21,2.343,21,4z" fill="#A69D24"/>
<path d="M17,31h10c0,0-1,4-5,4S17,31,17,31z M42,35c4,0,5-4,5-4H37C37,31,38,35,42,35z M35,50c0-1.657-1.343-3-3-3    c-1.657,0-3,1.343-3,3s1.343,3,3,3C33.657,53,35,51.657,35,50z" fill="#732002"/>
</g>
<g>
<path d="M27,30H17c-0.308,0-0.599,0.142-0.788,0.385s-0.257,0.559-0.182,0.858C16.441,32.888,18.219,36,22,36    s5.559-3.112,5.97-4.757c0.075-0.299,0.008-0.615-0.182-0.858S27.308,30,27,30z M22,34c-1.858,0-2.915-1.084-3.477-2h6.952    C24.915,32.916,23.858,34,22,34z" fill="#260A04"/>
<path d="M47,30H37c-0.308,0-0.599,0.142-0.788,0.385s-0.257,0.559-0.182,0.858C36.441,32.888,38.219,36,42,36    s5.559-3.112,5.97-4.757c0.075-0.299,0.008-0.615-0.182-0.858S47.308,30,47,30z M42,34c-1.858,0-2.915-1.084-3.477-2h6.952    C44.915,32.916,43.858,34,42,34z" fill="#260A04"/>
<path d="M32,46c-2.206,0-4,1.794-4,4s1.794,4,4,4s4-1.794,4-4S34.206,46,32,46z M32,52c-1.103,0-2-0.897-2-2    s0.897-2,2-2s2,0.897,2,2S33.103,52,32,52z" fill="#260A04"/>
<path d="M64,39c0-12.63-10.233-22.911-22.843-22.996c-1.623-0.746-3.351-1.3-5.157-1.633V12    c0-6.617-5.383-12-12-12c-2.206,0-4,1.794-4,4s1.794,4,4,4s4,1.794,4,4v2.371c-1.805,0.333-3.534,0.887-5.157,1.633    C10.233,16.089,0,26.37,0,39s10.233,22.911,22.843,22.996C25.633,63.279,28.733,64,32,64s6.367-0.721,9.157-2.004    C53.767,61.911,64,51.63,64,39z M24,6c-1.103,0-2-0.897-2-2s0.897-2,2-2c5.514,0,10,4.486,10,10v2.095    C33.341,14.035,32.675,14,32,14s-1.341,0.035-2,0.095V12C30,8.691,27.309,6,24,6z M45.218,59.574C50.547,55.555,54,49.174,54,42    h-2c0,11.028-8.972,20-20,20s-20-8.972-20-20h-2c0,7.174,3.453,13.555,8.782,17.574C9.218,57.616,2,49.135,2,39    s7.218-18.616,16.782-20.574C13.453,22.445,10,28.826,10,36h2c0-11.028,8.972-20,20-20s20,8.972,20,20h2    c0-7.174-3.453-13.555-8.782-17.574C54.782,20.384,62,28.865,62,39S54.782,57.616,45.218,59.574z" fill="#260A04"/>
</g>
</g>
</svg>